<svg viewBox="0 0 24 24">
  <title>Small Bundle</title>
  <path fill="none" stroke="#464a4c" stroke-width="0.5" d="M6.984 3v2.016h-1.969v-2.016h1.969zM11.016 3v2.016h-2.016v-2.016h2.016zM3 11.016v1.969h-2.016v-1.969h2.016zM3 3v2.016h-2.016c0-0.984 1.031-2.016 2.016-2.016zM18.984 18.984v2.016h-1.969v-2.016h1.969zM18.984 3v2.016h-1.969v-2.016h1.969zM15 18.984v2.016h-2.016v-2.016h2.016zM3 6.984v2.016h-2.016v-2.016h2.016zM3 21c-1.078 0-2.016-0.938-2.016-2.016v-3.984h10.031v6h-8.016zM21 3c0.984 0 2.016 1.031 2.016 2.016h-2.016v-2.016zM23.016 6.984v2.016h-2.016v-2.016h2.016zM15 3v2.016h-2.016v-2.016h2.016zM23.016 18.984c0 0.984-1.031 2.016-2.016 2.016v-2.016h2.016zM23.016 11.016v1.969h-2.016v-1.969h2.016zM23.016 15v2.016h-2.016v-2.016h2.016z"></path>
</svg>
