<?xml version="1.0" encoding="utf-8"?><svg xmlns="http://www.w3.org/2000/svg" xmlns:xlink="http://www.w3.org/1999/xlink"><defs><svg viewBox="0 0 18 28" id="chevron" xmlns="http://www.w3.org/2000/svg"><path d="M16.797 11.5a.54.54 0 0 1-.156.359L9.36 19.14c-.094.094-.234.156-.359.156s-.266-.063-.359-.156l-7.281-7.281c-.094-.094-.156-.234-.156-.359s.063-.266.156-.359l.781-.781a.508.508 0 0 1 .359-.156.54.54 0 0 1 .359.156l6.141 6.141 6.141-6.141c.094-.094.234-.156.359-.156s.266.063.359.156l.781.781a.536.536 0 0 1 .156.359z"/></svg><svg viewBox="0 0 24 24" id="close" xmlns="http://www.w3.org/2000/svg"><path d="M19 4q.43 0 .715.285T20 5q0 .422-.289.711L13.414 12l6.297 6.289Q20 18.578 20 19q0 .43-.285.715T19 20q-.422 0-.711-.289L12 13.414l-6.289 6.297Q5.422 20 5 20q-.43 0-.715-.285T4 19q0-.422.289-.711L10.586 12 4.289 5.711Q4 5.422 4 5q0-.43.285-.715T5 4q.422 0 .711.289L12 10.586l6.289-6.297Q18.578 4 19 4z"/></svg><svg viewBox="0 0 24 24" id="heart" xmlns="http://www.w3.org/2000/svg"><path d="M17.656 2q1.633 0 3.012.805t2.184 2.184.805 3.012q0 1.172-.449 2.277t-1.309 1.965l-9.898 9.898-9.898-9.898q-.859-.859-1.309-1.965T.345 8.001q0-1.633.805-3.012t2.184-2.184T6.346 2q1.18 0 2.277.445t1.965 1.313l1.414 1.414 1.414-1.414q.859-.859 1.965-1.309T17.658 2zm0 2q-.781 0-1.516.297t-1.312.875L12 8 9.172 5.172q-.578-.578-1.313-.875T6.343 4q-1.094 0-2.012.535T2.878 5.988 2.343 8q0 .781.297 1.516t.875 1.313l8.484 8.484 8.484-8.484q.578-.578.875-1.313T21.655 8q0-1.094-.535-2.012t-1.453-1.453T17.655 4z"/></svg></defs></svg>