<svg version="1.1" xmlns="http://www.w3.org/2000/svg" width="32" height="32" viewBox="0 0 32 32">
  <title>Accessibility</title>
  <path fill="none" stroke="#464a4c" stroke-width="0.5" d="M26.75 2.688c5.188 5.375 5.188 13.438 0 18.625l-2.188-2.125c3.688-4.25 3.688-10.375 0-14.375zM22.375 7.125c2.688 2.938 2.688 7 0 9.688l-2.25-2.25c1.125-1.563 1.125-3.625 0-5.188zM12 20c3.563 0 10.688 1.75 10.688 5.313v2.688h-21.375v-2.688c0-3.563 7.125-5.313 10.688-5.313zM6.688 12c0-2.938 2.375-5.313 5.313-5.313s5.313 2.375 5.313 5.313-2.375 5.313-5.313 5.313-5.313-2.375-5.313-5.313z"></path>
</svg>
