<svg width="24" height="24" viewBox="0 0 24 24">
  <title>copy</title>
  <path d="M18.984 20.016v-16.031h-1.969v3h-10.031v-3h-1.969v16.031h13.969zM12 2.016c-0.563 0-0.984 0.422-0.984 0.984s0.422 0.984 0.984 0.984 0.984-0.422 0.984-0.984-0.422-0.984-0.984-0.984zM18.984 2.016c1.078 0 2.016 0.891 2.016 1.969v16.031c0 1.078-0.938 1.969-2.016 1.969h-13.969c-1.078 0-2.016-0.891-2.016-1.969v-16.031c0-1.078 0.938-1.969 2.016-1.969h4.172c0.422-1.172 1.5-2.016 2.813-2.016s2.391 0.844 2.813 2.016h4.172z"></path>
</svg>
