<svg xmlns="http://www.w3.org/2000/svg" width="24" height="24" viewBox="0 0 24 24"><path d="M17.656 2q1.633 0 3.012.805t2.184 2.184.805 3.012q0 1.172-.449 2.277t-1.309 1.965l-9.898 9.898-9.898-9.898q-.859-.859-1.309-1.965T.345 8.001q0-1.633.805-3.012t2.184-2.184T6.346 2q1.18 0 2.277.445t1.965 1.313l1.414 1.414 1.414-1.414q.859-.859 1.965-1.309T17.658 2zm0 2q-.781 0-1.516.297t-1.312.875L12 8 9.172 5.172q-.578-.578-1.313-.875T6.343 4q-1.094 0-2.012.535T2.878 5.988 2.343 8q0 .781.297 1.516t.875 1.313l8.484 8.484 8.484-8.484q.578-.578.875-1.313T21.655 8q0-1.094-.535-2.012t-1.453-1.453T17.655 4z"/></svg>