<svg style="position: absolute; width: 0; height: 0; overflow: hidden;" version="1.1" xmlns="http://www.w3.org/2000/svg" xmlns:xlink="http://www.w3.org/1999/xlink">
<defs>
<symbol id="react" viewBox="0 0 34 32">
<path d="M19.314 15.987c0 1.321-1.071 2.392-2.392 2.392s-2.392-1.071-2.392-2.392c0-1.321 1.071-2.392 2.392-2.392s2.392 1.071 2.392 2.392z"></path>
<path d="M16.922 24.783c1.878 1.826 3.729 2.906 5.221 2.906 0.489 0 0.952-0.103 1.337-0.334 1.337-0.772 1.826-2.701 1.363-5.453-0.077-0.489-0.18-0.977-0.309-1.492 0.514-0.154 0.977-0.309 1.44-0.463 2.598-1.003 4.038-2.392 4.038-3.909 0-1.543-1.44-2.932-4.038-3.909-0.463-0.18-0.926-0.334-1.44-0.463 0.129-0.514 0.232-1.003 0.309-1.492 0.437-2.803-0.051-4.758-1.389-5.53-0.386-0.231-0.849-0.334-1.337-0.334-1.466 0-3.344 1.080-5.221 2.906-1.852-1.826-3.704-2.906-5.195-2.906-0.489 0-0.952 0.103-1.337 0.334-1.337 0.772-1.826 2.701-1.363 5.453 0.077 0.489 0.18 0.977 0.309 1.492-0.514 0.154-0.977 0.309-1.44 0.463-2.598 1.003-4.038 2.392-4.038 3.909 0 1.543 1.44 2.932 4.038 3.909 0.463 0.18 0.926 0.334 1.44 0.463-0.129 0.514-0.232 1.003-0.309 1.492-0.437 2.752 0.051 4.707 1.363 5.453 0.386 0.232 0.849 0.334 1.337 0.334 1.492 0.051 3.344-1.029 5.221-2.829v0zM15.481 21.311c0.463 0.026 0.952 0.026 1.44 0.026s0.977 0 1.44-0.026c-0.463 0.617-0.952 1.183-1.44 1.723-0.489-0.54-0.977-1.106-1.44-1.723zM12.292 18.662c0.257 0.437 0.489 0.849 0.772 1.26-0.797-0.103-1.543-0.232-2.263-0.386 0.232-0.694 0.489-1.415 0.797-2.135 0.206 0.411 0.437 0.849 0.694 1.26zM10.8 12.463c0.72-0.154 1.466-0.283 2.263-0.386-0.257 0.412-0.514 0.823-0.772 1.26s-0.489 0.849-0.694 1.286c-0.334-0.746-0.592-1.466-0.797-2.161zM12.215 15.987c0.334-0.694 0.694-1.389 1.106-2.083 0.386-0.669 0.823-1.337 1.26-2.006 0.772-0.051 1.543-0.077 2.341-0.077 0.823 0 1.595 0.026 2.341 0.077 0.463 0.669 0.874 1.337 1.26 2.006 0.412 0.694 0.772 1.389 1.106 2.083-0.334 0.694-0.694 1.389-1.106 2.083-0.386 0.669-0.823 1.337-1.26 2.006-0.772 0.051-1.543 0.077-2.341 0.077-0.823 0-1.595-0.026-2.341-0.077-0.463-0.669-0.874-1.337-1.26-2.006-0.412-0.695-0.772-1.389-1.106-2.083v0zM22.272 14.598l-0.694-1.286c-0.257-0.437-0.489-0.849-0.772-1.26 0.797 0.103 1.543 0.232 2.263 0.386-0.231 0.72-0.489 1.44-0.797 2.161v0zM22.272 17.376c0.309 0.72 0.566 1.44 0.797 2.135-0.72 0.154-1.466 0.283-2.263 0.386 0.257-0.412 0.514-0.823 0.772-1.26 0.232-0.386 0.463-0.823 0.694-1.26v0zM22.863 26.301c-0.206 0.129-0.463 0.18-0.746 0.18-1.26 0-2.829-1.029-4.372-2.572 0.746-0.797 1.466-1.698 2.186-2.701 1.209-0.103 2.366-0.283 3.447-0.54 0.129 0.463 0.206 0.926 0.283 1.389 0.36 2.186 0.077 3.755-0.797 4.244zM24.201 12.746c2.881 0.823 4.604 2.083 4.604 3.241 0 1.003-1.183 2.006-3.266 2.804-0.412 0.154-0.874 0.309-1.337 0.437-0.334-1.055-0.746-2.135-1.26-3.241 0.514-1.106 0.952-2.186 1.26-3.241v0zM22.143 5.493c0.283 0 0.514 0.051 0.746 0.18 0.849 0.489 1.157 2.032 0.797 4.244-0.077 0.437-0.18 0.9-0.283 1.389-1.080-0.232-2.238-0.412-3.447-0.54-0.694-1.003-1.44-1.903-2.186-2.701 1.543-1.518 3.112-2.572 4.372-2.572zM18.362 10.663c-0.463-0.026-0.952-0.026-1.44-0.026s-0.977 0-1.44 0.026c0.463-0.617 0.952-1.183 1.44-1.723 0.489 0.54 0.977 1.132 1.44 1.723v0zM10.98 5.673c0.206-0.129 0.463-0.18 0.746-0.18 1.26 0 2.829 1.029 4.372 2.572-0.746 0.797-1.466 1.697-2.186 2.701-1.209 0.103-2.366 0.283-3.447 0.54-0.129-0.463-0.206-0.926-0.283-1.389-0.36-2.186-0.077-3.729 0.797-4.244v0zM9.643 19.228c-2.881-0.823-4.604-2.083-4.604-3.241 0-1.003 1.183-2.006 3.266-2.803 0.412-0.154 0.874-0.309 1.337-0.437 0.334 1.055 0.746 2.135 1.26 3.241-0.514 1.106-0.952 2.212-1.26 3.241zM10.183 22.057c0.077-0.437 0.18-0.9 0.283-1.389 1.080 0.232 2.238 0.412 3.447 0.54 0.694 1.003 1.44 1.903 2.186 2.701-1.543 1.517-3.112 2.572-4.372 2.572-0.283 0-0.514-0.051-0.746-0.18-0.875-0.489-1.157-2.058-0.797-4.244z"></path>
</symbol>
<symbol id="git" viewBox="0 0 32 32">
<path d="M26.852 14.995l-9.848-9.848c-0.567-0.567-1.487-0.567-2.054 0l-2.045 2.045 2.594 2.594c0.603-0.204 1.294-0.067 1.775 0.413 0.483 0.483 0.619 1.181 0.41 1.786l2.5 2.5c0.605-0.209 1.303-0.074 1.786 0.41 0.675 0.675 0.675 1.769 0 2.444s-1.769 0.675-2.445 0c-0.508-0.508-0.633-1.254-0.376-1.88l-2.332-2.332v6.136c0.164 0.082 0.32 0.19 0.457 0.327 0.675 0.675 0.675 1.769 0 2.445-0.675 0.675-1.77 0.675-2.444 0-0.675-0.676-0.675-1.77 0-2.445 0.167-0.167 0.36-0.293 0.566-0.377v-6.193c-0.206-0.084-0.399-0.209-0.566-0.377-0.511-0.511-0.634-1.262-0.372-1.889l-2.557-2.558-6.753 6.752c-0.567 0.568-0.567 1.488 0 2.055l9.849 9.848c0.567 0.567 1.486 0.567 2.054 0l9.802-9.802c0.567-0.567 0.567-1.488 0-2.055z"></path>
</symbol>
<symbol id="github_badge" viewBox="0 0 32 32">
<path d="M16 5.058c-6.196 0-11.219 5.023-11.219 11.219 0 4.957 3.214 9.162 7.673 10.645 0.561 0.103 0.766-0.244 0.766-0.54 0-0.267-0.010-1.152-0.016-2.088-3.12 0.678-3.779-1.323-3.779-1.323-0.511-1.296-1.246-1.641-1.246-1.641-1.020-0.696 0.077-0.682 0.077-0.682 1.126 0.078 1.72 1.156 1.72 1.156 1.001 1.715 2.627 1.219 3.265 0.931 0.102-0.723 0.392-1.219 0.712-1.498-2.49-0.283-5.11-1.246-5.11-5.545 0-1.226 0.438-2.225 1.154-3.011-0.114-0.285-0.501-1.426 0.111-2.97 0 0 0.941-0.301 3.085 1.15 0.894-0.25 1.854-0.373 2.807-0.377 0.953 0.004 1.913 0.129 2.809 0.379 2.14-1.453 3.083-1.15 3.083-1.15 0.613 1.545 0.227 2.685 0.112 2.969 0.719 0.785 1.153 1.785 1.153 3.011 0 4.31-2.624 5.259-5.123 5.537 0.404 0.348 0.761 1.030 0.761 2.076 0 1.5-0.015 2.709-0.015 3.079 0 0.299 0.204 0.648 0.772 0.538 4.455-1.486 7.666-5.69 7.666-10.645 0-6.195-5.023-11.219-11.219-11.219z"></path>
</symbol>
<symbol id="javascript" viewBox="0 0 32 32">
<path d="M9.633 7.683h3.751v10.514c0 4.739-2.271 6.392-5.899 6.392-0.888 0-2.024-0.148-2.764-0.395l0.42-3.036c0.518 0.173 1.185 0.296 1.925 0.296 1.58 0 2.567-0.716 2.567-3.282v-10.489z"></path>
<path d="M16.641 20.467c0.987 0.518 2.567 1.037 4.171 1.037 1.728 0 2.641-0.716 2.641-1.826 0-1.012-0.79-1.629-2.789-2.32-2.764-0.987-4.59-2.517-4.59-4.961 0-2.838 2.394-4.985 6.293-4.985 1.9 0 3.258 0.37 4.245 0.839l-0.839 3.011c-0.642-0.321-1.851-0.79-3.455-0.79-1.629 0-2.419 0.765-2.419 1.604 0 1.061 0.913 1.53 3.085 2.369 2.937 1.086 4.294 2.616 4.294 4.985 0 2.789-2.122 5.158-6.688 5.158-1.9 0-3.776-0.518-4.714-1.037l0.765-3.085z"></path>
</symbol>
<symbol id="nodejs" viewBox="0 0 32 32">
<path d="M5.304 16.277c0-0.095-0.050-0.183-0.132-0.23l-2.192-1.261c-0.037-0.022-0.079-0.033-0.121-0.035-0.004 0-0.020 0-0.023 0-0.042 0.002-0.083 0.013-0.121 0.035l-2.191 1.261c-0.082 0.047-0.133 0.135-0.133 0.23l0.005 3.396c0 0.047 0.025 0.091 0.066 0.114 0.041 0.024 0.091 0.024 0.132 0l1.302-0.746c0.082-0.049 0.132-0.135 0.132-0.23v-1.587c0-0.094 0.050-0.182 0.132-0.229l0.555-0.319c0.041-0.024 0.086-0.035 0.133-0.035 0.045 0 0.091 0.012 0.132 0.035l0.554 0.319c0.082 0.047 0.132 0.135 0.132 0.229v1.587c0 0.095 0.051 0.181 0.133 0.23l1.302 0.746c0.041 0.024 0.092 0.024 0.132 0 0.040-0.023 0.066-0.067 0.066-0.114l0.004-3.396z"></path>
<path d="M17.006 11.609c-0.041-0.023-0.091-0.022-0.131 0.002s-0.065 0.067-0.065 0.114v3.363c0 0.033-0.018 0.064-0.046 0.080s-0.064 0.017-0.093 0l-0.549-0.316c-0.082-0.047-0.183-0.047-0.265 0l-2.192 1.265c-0.082 0.047-0.133 0.135-0.133 0.229v2.531c0 0.095 0.050 0.182 0.132 0.229l2.192 1.266c0.082 0.047 0.183 0.047 0.265 0l2.193-1.266c0.082-0.048 0.132-0.135 0.132-0.229v-6.309c0-0.096-0.052-0.184-0.136-0.231l-1.305-0.728zM16.803 18.046c0 0.024-0.012 0.046-0.033 0.057l-0.753 0.434c-0.020 0.012-0.046 0.012-0.066 0l-0.753-0.434c-0.021-0.012-0.033-0.034-0.033-0.057v-0.869c0-0.024 0.013-0.046 0.033-0.057l0.753-0.435c0.020-0.012 0.046-0.012 0.066 0l0.753 0.435c0.020 0.012 0.033 0.034 0.033 0.057v0.869z"></path>
<path d="M24.85 17.154c0.081-0.047 0.132-0.134 0.132-0.229v-0.613c0-0.095-0.050-0.181-0.132-0.229l-2.178-1.265c-0.082-0.048-0.183-0.048-0.265-0l-2.192 1.265c-0.082 0.047-0.132 0.135-0.132 0.229v2.53c0 0.095 0.051 0.183 0.134 0.23l2.178 1.241c0.080 0.046 0.179 0.046 0.26 0.001l1.317-0.732c0.041-0.023 0.067-0.067 0.068-0.115s-0.025-0.092-0.066-0.116l-2.206-1.266c-0.041-0.023-0.066-0.067-0.066-0.115v-0.793c0-0.047 0.025-0.091 0.066-0.115l0.687-0.395c0.041-0.023 0.091-0.023 0.132 0l0.687 0.395c0.041 0.024 0.066 0.067 0.066 0.115v0.624c0 0.047 0.025 0.091 0.066 0.115s0.092 0.023 0.133-0l1.312-0.763z"></path>
<path d="M9.291 14.804c0.082-0.047 0.183-0.047 0.265 0l2.192 1.265c0.082 0.047 0.132 0.134 0.132 0.229v2.532c0 0.095-0.051 0.182-0.132 0.229l-2.192 1.266c-0.082 0.047-0.183 0.047-0.265 0l-2.192-1.266c-0.082-0.047-0.132-0.135-0.132-0.229v-2.532c0-0.095 0.050-0.182 0.132-0.229l2.192-1.265z"></path>
<path d="M29.106 20.362c-0.075 0-0.151-0.020-0.217-0.058l-0.69-0.408c-0.103-0.058-0.052-0.078-0.019-0.090 0.137-0.048 0.165-0.059 0.312-0.142 0.015-0.009 0.036-0.005 0.052 0.004l0.53 0.315c0.019 0.011 0.046 0.011 0.064 0l2.067-1.193c0.019-0.011 0.031-0.033 0.031-0.056v-2.386c0-0.023-0.012-0.045-0.032-0.057l-2.066-1.192c-0.019-0.011-0.045-0.011-0.064 0l-2.066 1.192c-0.020 0.011-0.033 0.034-0.033 0.057v2.386c0 0.023 0.013 0.044 0.032 0.055l0.566 0.327c0.307 0.154 0.495-0.027 0.495-0.209v-2.355c0-0.033 0.027-0.059 0.060-0.059h0.262c0.033 0 0.060 0.026 0.060 0.059v2.355c0 0.41-0.223 0.645-0.612 0.645-0.119 0-0.214 0-0.476-0.129l-0.542-0.312c-0.134-0.077-0.217-0.222-0.217-0.377v-2.386c0-0.155 0.083-0.3 0.217-0.377l2.067-1.194c0.131-0.074 0.305-0.074 0.434 0l2.067 1.194c0.134 0.077 0.217 0.222 0.217 0.377v2.386c0 0.155-0.083 0.299-0.217 0.377l-2.067 1.193c-0.066 0.038-0.141 0.058-0.218 0.058z"></path>
<path d="M29.745 18.718c-0.905 0-1.094-0.415-1.094-0.764 0-0.033 0.026-0.059 0.060-0.059h0.267c0.030 0 0.055 0.022 0.059 0.051 0.040 0.272 0.16 0.41 0.708 0.41 0.435 0 0.621-0.099 0.621-0.329 0-0.133-0.052-0.232-0.729-0.298-0.565-0.056-0.915-0.181-0.915-0.633 0-0.417 0.352-0.666 0.941-0.666 0.662 0 0.99 0.23 1.031 0.723 0.002 0.017-0.004 0.033-0.016 0.046s-0.027 0.019-0.044 0.019h-0.268c-0.028 0-0.052-0.020-0.058-0.047-0.064-0.286-0.221-0.378-0.645-0.378-0.475 0-0.531 0.166-0.531 0.29 0 0.151 0.065 0.194 0.707 0.279 0.635 0.084 0.937 0.203 0.937 0.649 0 0.45-0.375 0.708-1.030 0.708z"></path>
<path d="M22.506 17.035c0.016-0.009 0.035-0.009 0.051 0l0.421 0.243c0.016 0.009 0.026 0.026 0.026 0.044v0.486c0 0.018-0.010 0.035-0.026 0.044l-0.421 0.243c-0.016 0.009-0.035 0.009-0.051 0l-0.42-0.243c-0.016-0.009-0.025-0.026-0.025-0.044v-0.486c0-0.018 0.010-0.035 0.025-0.044l0.42-0.243z"></path>
</symbol>
<symbol id="nodejs_small" viewBox="0 0 32 32">
<path d="M15.998 28.609c-0.337 0-0.673-0.088-0.969-0.259l-3.086-1.826c-0.46-0.257-0.235-0.349-0.083-0.402 0.614-0.213 0.739-0.262 1.394-0.635 0.069-0.038 0.159-0.024 0.231 0.018l2.37 1.407c0.087 0.048 0.207 0.048 0.287 0l9.241-5.333c0.086-0.049 0.141-0.149 0.141-0.25v-10.665c0-0.104-0.055-0.202-0.143-0.255l-9.237-5.329c-0.086-0.050-0.199-0.050-0.285 0l-9.235 5.331c-0.090 0.051-0.146 0.152-0.146 0.253v10.665c0 0.102 0.056 0.198 0.145 0.247l2.532 1.462c1.374 0.687 2.215-0.122 2.215-0.935v-10.53c0-0.149 0.12-0.266 0.269-0.266h1.172c0.146 0 0.267 0.117 0.267 0.266v10.53c0 1.833-0.998 2.885-2.736 2.885-0.534 0-0.955 0-2.129-0.579l-2.423-1.395c-0.598-0.346-0.969-0.993-0.969-1.686v-10.665c0-0.693 0.371-1.339 0.969-1.684l9.242-5.34c0.585-0.331 1.362-0.331 1.942 0l9.241 5.34c0.599 0.346 0.971 0.992 0.971 1.684v10.665c0 0.693-0.372 1.337-0.971 1.686l-9.241 5.335c-0.296 0.171-0.631 0.259-0.973 0.259z"></path>
<path d="M18.853 21.262c-4.045 0-4.892-1.857-4.892-3.414 0-0.148 0.118-0.266 0.266-0.266h1.195c0.133 0 0.245 0.096 0.265 0.226 0.18 1.216 0.717 1.831 3.164 1.831 1.946 0 2.775-0.441 2.775-1.473 0-0.596-0.234-1.037-3.26-1.334-2.528-0.25-4.093-0.809-4.093-2.831 0-1.865 1.572-2.977 4.207-2.977 2.961 0 4.425 1.027 4.611 3.233 0.007 0.075-0.020 0.148-0.071 0.205-0.051 0.054-0.121 0.086-0.196 0.086h-1.2c-0.124 0-0.233-0.088-0.259-0.209-0.288-1.28-0.988-1.689-2.886-1.689-2.126 0-2.373 0.74-2.373 1.295 0 0.673 0.292 0.869 3.161 1.248 2.84 0.375 4.19 0.907 4.19 2.902 0 2.014-1.678 3.167-4.606 3.167z"></path>
</symbol>
<symbol id="javascript_shield" viewBox="0 0 32 32">
<path d="M4.698 3.133l2.057 23.073 9.231 2.563 9.256-2.566 2.059-23.069h-22.604zM13.226 9.108l-0.409 4.441 9.671 0.001-0.069 0.76-0.665 7.45-0.042 0.478-5.804 1.609-5.796-1.609-0.396-4.443h2.84l0.202 2.257 3.154 0.85 3.156-0.852 0.328-3.67-9.671-0.001 0.069-0.76 0.665-7.45 0.209-2.086h11.287l0.131 1.598 0.403 4.453h-2.841l-0.262-2.922-2.889-0.174h-0.515v-0.004l-2.755 0.074z"></path>
</symbol>
<symbol id="bootstrap" viewBox="0 0 32 32">
<path d="M8.171 4.713c-0.562 0.083-1.237 0.347-1.716 0.675-0.313 0.207-0.717 0.596-0.95 0.901-0.26 0.343-0.577 1.003-0.702 1.456l-0.106 0.377v15.727l0.106 0.377c0.124 0.453 0.441 1.113 0.702 1.456 0.49 0.641 1.245 1.181 2.003 1.426 0.626 0.2 0.313 0.192 8.486 0.192 8.177 0 7.864 0.008 8.486-0.196 0.762-0.245 1.516-0.781 2.003-1.422 0.26-0.347 0.581-1.007 0.705-1.456l0.102-0.377v-15.727l-0.106-0.377c-0.124-0.453-0.441-1.113-0.701-1.456-0.234-0.306-0.637-0.694-0.95-0.901-0.336-0.23-0.883-0.479-1.305-0.596l-0.37-0.102-7.732-0.004c-4.251-0.004-7.834 0.008-7.954 0.026zM18.709 8.873c1.192 0.196 2.006 0.588 2.538 1.222 0.226 0.268 0.49 0.8 0.6 1.196 0.068 0.26 0.079 0.407 0.083 1.056 0.004 0.683-0.004 0.784-0.083 1.052-0.23 0.8-0.732 1.414-1.543 1.89l-0.279 0.162 0.2 0.064c0.305 0.102 0.815 0.366 1.075 0.562 0.649 0.49 1.101 1.252 1.282 2.161 0.087 0.453 0.087 1.422-0.004 1.837-0.358 1.633-1.622 2.768-3.523 3.149-0.728 0.147-0.916 0.155-4.824 0.155h-3.82v-14.6l3.953 0.015c3.538 0.011 3.99 0.019 4.345 0.079z"></path>
<path d="M13.655 12.992v1.72l1.822-0.015c1.709-0.019 1.837-0.023 2.112-0.098 0.86-0.234 1.233-0.728 1.233-1.633 0-0.694-0.245-1.143-0.777-1.407-0.471-0.234-0.981-0.283-2.983-0.287h-1.407v1.72z"></path>
<path d="M13.655 18.89v2.003l1.991-0.015c2.237-0.015 2.312-0.023 2.863-0.29 0.634-0.309 0.916-0.815 0.916-1.641 0-1.063-0.422-1.652-1.395-1.946-0.275-0.087-0.328-0.087-2.327-0.102l-2.048-0.011v2.003z"></path>
</symbol>
<symbol id="sass" viewBox="0 0 32 32">
<path d="M31.641 20.876c-0.109-0.911-0.578-1.618-1.286-2.172-0.82-0.641-1.78-0.905-2.803-0.947-0.834-0.034-1.65 0.090-2.437 0.376-0.224 0.081-0.444 0.177-0.67 0.268-0.030-0.055-0.062-0.107-0.088-0.162-0.232-0.474-0.512-0.927-0.573-1.47-0.044-0.386-0.098-0.772-0.006-1.153 0.088-0.367 0.204-0.728 0.312-1.091 0.056-0.187 0.017-0.291-0.161-0.375-0.062-0.029-0.129-0.055-0.197-0.065-0.438-0.063-0.869-0.027-1.293 0.096-0.15 0.044-0.259 0.128-0.292 0.294-0.019 0.095-0.058 0.186-0.084 0.28-0.111 0.391-0.189 0.789-0.368 1.161-0.449 0.934-0.96 1.832-1.485 2.724-0.057 0.096-0.116 0.191-0.188 0.308-0.184-0.385-0.38-0.73-0.44-1.136-0.067-0.458-0.12-0.915-0.006-1.37 0.085-0.339 0.196-0.672 0.298-1.006 0.049-0.159 0.026-0.242-0.118-0.326-0.073-0.042-0.155-0.080-0.237-0.092-0.454-0.067-0.901-0.032-1.338 0.11-0.136 0.044-0.207 0.132-0.249 0.272-0.122 0.413-0.226 0.836-0.397 1.229-0.694 1.59-1.407 3.172-2.12 4.753-0.149 0.33-0.323 0.649-0.491 0.97-0.043 0.082-0.104 0.153-0.157 0.23-0.043-0.050-0.059-0.085-0.059-0.119 0.001-0.203-0.023-0.413 0.016-0.609 0.117-0.594 0.252-1.186 0.395-1.775 0.117-0.486 0.254-0.968 0.385-1.452 0.044-0.162 0.045-0.313-0.072-0.449-0.195-0.228-0.603-0.278-0.845-0.102-0.026 0.019-0.057 0.032-0.107 0.061 0.009-0.077 0.014-0.125 0.021-0.173 0.051-0.37 0.061-0.738-0.040-1.103-0.127-0.454-0.45-0.715-0.921-0.701-0.22 0.007-0.45 0.044-0.653 0.124-0.855 0.335-1.512 0.928-2.071 1.642-0.051 0.065-0.118 0.124-0.189 0.163-0.723 0.401-1.449 0.797-2.174 1.195-0.271 0.148-0.542 0.297-0.807 0.442-0.216-0.207-0.413-0.421-0.637-0.603-0.682-0.556-1.375-1.098-2.061-1.648-0.608-0.487-1.198-0.995-1.649-1.64-0.336-0.48-0.552-1.005-0.572-1.599-0.026-0.756 0.188-1.447 0.573-2.091 0.493-0.823 1.164-1.483 1.903-2.082 0.781-0.633 1.626-1.17 2.502-1.66 1.225-0.686 2.486-1.293 3.837-1.694 1.386-0.411 2.791-0.646 4.241-0.482 0.57 0.064 1.123 0.195 1.632 0.474 0.389 0.213 0.708 0.492 0.857 0.929 0.146 0.43 0.142 0.865 0.040 1.301-0.206 0.883-0.69 1.612-1.299 2.263-0.998 1.067-2.216 1.793-3.588 2.273-0.791 0.277-1.605 0.451-2.441 0.521-0.682 0.057-1.35-0.003-1.996-0.241-0.428-0.157-0.8-0.398-1.1-0.747-0.054-0.063-0.122-0.13-0.222-0.072-0.098 0.057-0.115 0.151-0.082 0.245 0.055 0.157 0.105 0.319 0.191 0.459 0.214 0.351 0.527 0.606 0.871 0.825 0.661 0.42 1.399 0.561 2.165 0.594 1.162 0.050 2.296-0.123 3.413-0.435 1.596-0.445 2.983-1.231 4.096-2.471 0.927-1.032 1.588-2.198 1.73-3.605 0.069-0.687-0.004-1.36-0.326-1.986-0.349-0.679-0.903-1.147-1.566-1.494-0.964-0.506-2.006-0.705-3.081-0.763-0.359-0-0.718-0-1.077-0-1.303 0.063-2.562 0.337-3.786 0.782-0.926 0.337-1.835 0.717-2.717 1.157-1.921 0.96-3.71 2.108-5.179 3.699-0.732 0.793-1.352 1.663-1.708 2.693-0.104 0.302-0.168 0.622-0.243 0.934-0.006 0.026 0.023 0.051-0.041 0.077 0 0.147 0 0.293 0 0.44 0.064 0.113 0.071 0.225 0.1 0.338 0.189 0.733 0.578 1.363 1.060 1.937 0.687 0.818 1.518 1.476 2.38 2.096 0.747 0.537 1.505 1.062 2.255 1.595 0.129 0.091 0.248 0.197 0.388 0.309-0.12 0.065-0.221 0.122-0.325 0.175-0.99 0.502-1.942 1.065-2.82 1.747-0.529 0.411-1.041 0.848-1.402 1.418-0.581 0.918-0.787 1.896-0.354 2.94 0.127 0.305 0.32 0.569 0.592 0.763 0.088 0.063 0.187 0.126 0.29 0.15 0.264 0.062 0.534 0.103 0.802 0.152 0.253-0 0.505-0 0.758-0 0.839-0.075 1.602-0.362 2.291-0.838 1.078-0.744 1.804-1.741 2.117-3.022 0.227-0.93 0.236-1.862-0.031-2.788-0.025-0.086-0.056-0.17-0.089-0.253s-0.071-0.164-0.116-0.268c0.572-0.329 1.146-0.659 1.719-0.989 0.009 0.007 0.017 0.015 0.026 0.022-0.031 0.102-0.064 0.204-0.093 0.308-0.204 0.746-0.34 1.505-0.291 2.279 0.052 0.825 0.282 1.597 0.765 2.287 0.39 0.558 1.321 0.578 1.736 0.019 0.147-0.199 0.29-0.406 0.397-0.628 0.28-0.579 0.54-1.168 0.807-1.753 0.012-0.025 0.022-0.050 0.047-0.107-0.019 0.277-0.042 0.52-0.052 0.764-0.016 0.38 0.006 0.758 0.136 1.12 0.111 0.31 0.3 0.541 0.655 0.581 0.242 0.028 0.436-0.083 0.614-0.224 0.279-0.22 0.505-0.491 0.673-0.8 0.475-0.873 0.963-1.74 1.394-2.635 0.466-0.968 0.873-1.964 1.306-2.948 0.024-0.054 0.045-0.109 0.072-0.175 0.102 0.402 0.174 0.795 0.305 1.168 0.152 0.432 0.341 0.854 0.547 1.264 0.097 0.194 0.086 0.32-0.049 0.482-0.564 0.68-1.118 1.368-1.673 2.056-0.123 0.152-0.245 0.306-0.347 0.472-0.062 0.101-0.103 0.223-0.12 0.341-0.033 0.225 0.105 0.441 0.346 0.493 0.219 0.047 0.453 0.065 0.677 0.048 0.774-0.057 1.477-0.329 2.099-0.789 0.805-0.597 1.064-1.41 0.869-2.375-0.053-0.262-0.146-0.517-0.237-0.769-0.041-0.114-0.043-0.194 0.031-0.3 0.644-0.919 1.194-1.895 1.705-2.892 0.020-0.039 0.041-0.079 0.076-0.121 0.166 0.863 0.415 1.694 0.862 2.448-0.228 0.22-0.454 0.419-0.658 0.639-0.45 0.483-0.84 1.009-1.043 1.649-0.087 0.276-0.155 0.556-0.116 0.852 0.061 0.458 0.436 0.755 0.886 0.651 0.963-0.223 1.795-0.677 2.403-1.481 0.409-0.541 0.446-1.145 0.275-1.778-0.047-0.172-0.103-0.341-0.163-0.539 0.238-0.074 0.47-0.162 0.709-0.217 1.245-0.284 2.476-0.234 3.675 0.215 0.7 0.262 1.266 0.702 1.601 1.393 0.41 0.845 0.183 1.646-0.613 2.18-0.074 0.050-0.159 0.089-0.221 0.151-0.038 0.038-0.060 0.115-0.051 0.167 0.005 0.031 0.087 0.069 0.133 0.069 0.262-0.002 0.474-0.139 0.678-0.28 0.511-0.353 0.848-0.829 0.928-1.454 0.002-0.018-0.024-0.035 0.040-0.052 0-0.139 0-0.277 0-0.416-0.064-0.017-0.037-0.034-0.039-0.052zM7.286 22.565c-0.083 1.115-0.588 2.019-1.414 2.75-0.465 0.412-0.997 0.705-1.618 0.808-0.225 0.037-0.455 0.046-0.674-0.047-0.311-0.133-0.381-0.409-0.387-0.704-0.009-0.469 0.155-0.893 0.38-1.296 0.294-0.526 0.725-0.927 1.185-1.301 0.725-0.59 1.512-1.090 2.317-1.561 0.013-0.008 0.029-0.012 0.061-0.025 0.124 0.46 0.184 0.914 0.149 1.377zM13.576 17.72c-0.059 0.356-0.132 0.712-0.236 1.057-0.36 1.194-0.821 2.352-1.32 3.493-0.092 0.211-0.226 0.404-0.343 0.604-0.018 0.031-0.045 0.058-0.071 0.084-0.144 0.143-0.282 0.135-0.355-0.052-0.085-0.217-0.137-0.449-0.182-0.679-0.030-0.154-0.023-0.316-0.032-0.474 0.010-1.123 0.352-2.145 0.934-3.095 0.24-0.392 0.501-0.765 0.899-1.014 0.123-0.076 0.26-0.137 0.399-0.177 0.212-0.060 0.343 0.039 0.308 0.252zM17.867 23.188c0.514-0.6 1.027-1.199 1.542-1.801 0.064 0.669-1.072 2.004-1.542 1.801zM22.793 21.976c-0.109 0.062-0.228 0.108-0.34 0.165-0.102 0.053-0.136-0-0.139-0.088-0.002-0.060 0.007-0.122 0.023-0.18 0.208-0.735 0.591-1.361 1.162-1.871 0.008-0.008 0.021-0.011 0.040-0.021 0.271 0.758-0.042 1.592-0.747 1.995z"></path>
</symbol>
<symbol id="css3_full" viewBox="0 0 32 32">
<path d="M8.054 5.759l-0.76 3.799h15.462l-0.483 2.454h-15.472l-0.749 3.799h15.462l-0.862 4.333-6.232 2.064-5.4-2.064 0.37-1.879h-3.799l-0.904 4.558 8.932 3.419 10.297-3.419 1.366-6.858 0.277-1.376 1.756-8.829h-19.26z"></path>
</symbol>
<symbol id="css3" viewBox="0 0 32 32">
<path d="M16.017 20.758v0z"></path>
<path d="M4.743 3.233l2.049 22.981 9.194 2.552 9.22-2.556 2.051-22.977h-22.514zM23 8.49l-0.693 7.767h-0l-0.48 5.359-0.042 0.476-5.781 1.603-5.773-1.603-0.395-4.426h2.829l0.201 2.248 3.142 0.847 0.008-0.002 0.002-0 3.134-0.846 0.329-3.655-6.579 0-0.056-0.633-0.129-1.429-0.067-0.756 7.081-0 0.258-2.886h-10.786l-0.056-0.634-0.129-1.429-0.067-0.756h14.118l-0.068 0.756z"></path>
</symbol>
<symbol id="html5" viewBox="0 0 32 32">
<path d="M4.665 3.125l2.063 23.176 9.258 2.574 9.284-2.578 2.065-23.172h-22.671zM8.951 8.625l-0.068-0.763h7.107v2.842h-4.005l0.259 2.911h3.746v2.842h-6.341l-0.698-7.833zM22.518 14.379l-0.667 7.483-0.043 0.48-5.822 1.616-5.814-1.616-0.398-4.463h2.849l0.202 2.267 3.163 0.854 3.165-0.856 0.329-3.686h-3.485v-2.842h6.587l-0.069 0.763zM23.032 8.625l-0.129 1.441-0.057 0.639h-6.846v-2.842h7.1l-0.068 0.763z"></path>
</symbol>
<symbol id="npm" viewBox="0 0 32 32">
<path d="M0.32 15.12v5.248h8.736v1.76h6.976v-1.76h15.649v-10.495h-31.36v5.248zM9.055 15.12v3.488h-1.76v-5.216h-1.697v5.216h-3.582v-6.976h7.039v3.488zM17.779 15.126l-0.019 3.488-3.425-0.012v1.766h-3.582v-8.736h7.039l-0.012 3.494zM29.983 15.12v3.488h-1.76v-5.216h-1.76v5.248l-1.76-0.038v-5.21h-1.697v5.216h-3.519v-6.976h10.495v3.488z"></path>
<path d="M14.335 15.12v1.728h1.634v-3.457h-1.634v1.728z"></path>
</symbol>
<symbol id="visualstudio" viewBox="0 0 32 32">
<path d="M17.319 9.128c-2.444 2.444-4.5 4.435-4.597 4.435-0.081 0-1.424-0.987-2.962-2.185l-2.784-2.185-2.266 1.133v11.331l2.266 1.133 2.574-2.007c1.425-1.117 2.736-2.12 2.914-2.234 0.324-0.194 0.647 0.097 4.84 4.274l4.484 4.484 2.752-1.117 2.752-1.101v-18.195l-2.104-0.842c-1.149-0.47-2.396-0.955-2.768-1.101l-0.664-0.259-4.435 4.435zM21.706 15.992c0 2.493-0.032 4.532-0.097 4.532-0.227 0-5.73-4.435-5.682-4.581 0.049-0.178 5.471-4.468 5.666-4.468 0.065-0.016 0.114 2.023 0.114 4.516zM8.837 14.373l1.619 1.619-1.619 1.619c-0.89 0.89-1.667 1.619-1.732 1.619-0.081 0-0.13-1.457-0.13-3.237s0.049-3.238 0.13-3.238c0.065 0 0.842 0.729 1.732 1.619z"></path>
</symbol>
<symbol id="rasberry_pi" viewBox="0 0 32 32">
<path d="M24.378 14.811l-0.183-0.326c0.007-2.343-1.063-3.298-2.312-4.023 0.378-0.101 0.768-0.184 0.875-0.666 0.649-0.169 0.785-0.474 0.85-0.797 0.17-0.115 0.738-0.438 0.678-0.992 0.318-0.223 0.495-0.509 0.405-0.914 0.342-0.379 0.432-0.691 0.287-0.98 0.41-0.518 0.228-0.786 0.053-1.058 0.307-0.566 0.036-1.173-0.823-1.071-0.342-0.51-1.087-0.394-1.202-0.392-0.129-0.164-0.299-0.304-0.823-0.236-0.339-0.307-0.718-0.255-1.11-0.104-0.464-0.366-0.772-0.073-1.123 0.038-0.562-0.184-0.691 0.068-0.967 0.17-0.613-0.13-0.8 0.153-1.094 0.45l-0.342-0.007c-0.925 0.545-1.385 1.655-1.548 2.226-0.163-0.571-0.621-1.681-1.547-2.226l-0.342 0.007c-0.294-0.298-0.481-0.58-1.094-0.45-0.276-0.103-0.405-0.354-0.967-0.17-0.23-0.073-0.442-0.225-0.692-0.217l0 0c-0.131 0.004-0.271 0.052-0.431 0.178-0.391-0.151-0.77-0.203-1.11 0.104-0.524-0.068-0.694 0.072-0.823 0.236-0.115-0.002-0.86-0.118-1.202 0.392-0.859-0.102-1.131 0.505-0.823 1.071-0.175 0.272-0.357 0.54 0.053 1.058-0.145 0.288-0.055 0.601 0.287 0.98-0.090 0.405 0.087 0.691 0.405 0.914-0.060 0.555 0.509 0.877 0.678 0.992 0.065 0.323 0.201 0.628 0.85 0.797 0.107 0.482 0.497 0.565 0.875 0.666-1.248 0.726-2.319 1.681-2.312 4.024l-0.183 0.326c-1.431 0.871-2.72 3.669-0.706 5.943 0.131 0.712 0.352 1.223 0.549 1.789 0.294 2.28 2.211 3.348 2.717 3.475 0.741 0.564 1.53 1.1 2.599 1.475 1.007 1.038 2.098 1.434 3.195 1.434 0.016 0 0.032 0 0.049 0 1.097 0.001 2.188-0.395 3.195-1.434 1.068-0.375 1.858-0.911 2.599-1.475 0.506-0.126 2.423-1.194 2.717-3.475 0.196-0.566 0.417-1.077 0.549-1.789 2.014-2.274 0.726-5.073-0.706-5.943zM23.083 14.411c-0.075 0.944-4.918-3.286-4.082-3.426 2.27-0.383 4.158 0.965 4.082 3.426zM17.765 4.551c0.042 0.212 0.089 0.346 0.144 0.385 0.269-0.293 0.489-0.593 0.836-0.875 0.001 0.166-0.082 0.345 0.124 0.477 0.186-0.254 0.437-0.481 0.771-0.673-0.161 0.281-0.028 0.367 0.059 0.483 0.255-0.222 0.497-0.446 0.967-0.62-0.128 0.159-0.308 0.314-0.117 0.496 0.262-0.166 0.526-0.332 1.149-0.451-0.14 0.159-0.431 0.318-0.255 0.477 0.329-0.128 0.694-0.221 1.097-0.274-0.193 0.161-0.354 0.319-0.196 0.444 0.352-0.11 0.838-0.258 1.313-0.131l-0.3 0.307c-0.033 0.041 0.703 0.032 1.189 0.039-0.177 0.25-0.358 0.492-0.464 0.921 0.048 0.050 0.289 0.022 0.516 0-0.233 0.498-0.637 0.623-0.732 0.836 0.142 0.109 0.339 0.081 0.555 0.006-0.167 0.351-0.519 0.591-0.797 0.875 0.070 0.051 0.193 0.081 0.483 0.046-0.257 0.277-0.567 0.53-0.934 0.757 0.065 0.076 0.289 0.073 0.496 0.078-0.333 0.331-0.761 0.502-1.163 0.718 0.2 0.139 0.343 0.106 0.496 0.105-0.284 0.237-0.767 0.36-1.215 0.503 0.085 0.134 0.17 0.171 0.353 0.209-0.474 0.267-1.154 0.145-1.345 0.281 0.046 0.134 0.177 0.221 0.333 0.294-0.764 0.045-2.852-0.028-3.252-1.633 0.782-0.872 2.208-1.895 4.662-3.16-1.909 0.649-3.632 1.513-5.073 2.703-1.695-0.801-0.526-2.822 0.3-3.625zM15.99 10.338v-0c1.202-0.013 2.69 0.897 2.685 1.755-0.005 0.757-1.045 1.37-2.675 1.358-1.596-0.019-2.671-0.77-2.667-1.503 0.003-0.604 1.303-1.644 2.658-1.609zM9.914 9.691c0.182-0.038 0.267-0.075 0.353-0.209-0.448-0.143-0.931-0.266-1.215-0.503 0.153 0.002 0.296 0.034 0.496-0.105-0.401-0.216-0.83-0.388-1.162-0.718 0.207-0.005 0.431-0.002 0.496-0.078-0.367-0.228-0.677-0.481-0.934-0.757 0.29 0.035 0.413 0.005 0.483-0.046-0.278-0.284-0.629-0.525-0.797-0.875 0.216 0.074 0.413 0.103 0.555-0.006-0.094-0.213-0.499-0.338-0.731-0.836 0.227 0.022 0.468 0.050 0.516 0-0.105-0.429-0.286-0.671-0.464-0.921 0.486-0.007 1.222 0.002 1.189-0.039l-0.3-0.307c0.475-0.128 0.96 0.021 1.313 0.131 0.158-0.125-0.003-0.283-0.196-0.444 0.403 0.054 0.768 0.146 1.097 0.274 0.176-0.159-0.114-0.318-0.255-0.477 0.623 0.118 0.887 0.284 1.149 0.451 0.19-0.182 0.011-0.337-0.117-0.496 0.47 0.174 0.712 0.399 0.967 0.62 0.086-0.117 0.22-0.202 0.059-0.483 0.334 0.192 0.585 0.419 0.771 0.673 0.206-0.132 0.123-0.311 0.124-0.477 0.347 0.282 0.567 0.582 0.836 0.875 0.054-0.040 0.102-0.173 0.144-0.385 0.827 0.802 1.996 2.823 0.3 3.625-1.442-1.189-3.164-2.054-5.072-2.702 2.453 1.265 3.879 2.288 4.66 3.159-0.4 1.605-2.489 1.678-3.252 1.633 0.156-0.073 0.287-0.16 0.333-0.294-0.192-0.136-0.871-0.014-1.345-0.281zM12.73 10.912c0.836 0.14-4.008 4.37-4.082 3.427-0.076-2.461 1.812-3.81 4.082-3.427zM7.644 20.337c-1.177-0.947-1.556-3.72 0.626-4.966 1.315-0.353 0.444 5.441-0.626 4.966zM12.233 25.299c-0.664 0.4-2.276 0.235-3.422-1.411-0.773-1.381-0.673-2.787-0.131-3.2 0.811-0.494 2.065 0.173 3.030 1.293 0.841 1.013 1.224 2.793 0.522 3.318zM10.928 19.257c-1.218-0.798-1.438-2.607-0.49-4.041s2.703-1.949 3.921-1.151c1.218 0.798 1.438 2.607 0.491 4.041s-2.703 1.949-3.921 1.151zM15.994 28.121c-1.46 0.063-2.892-1.196-2.874-1.633-0.022-0.64 1.778-1.14 2.952-1.11 1.181-0.052 2.766 0.381 2.769 0.954 0.020 0.556-1.437 1.814-2.847 1.789zM19 21.811c0.009 1.497-1.301 2.718-2.925 2.725s-2.947-1.199-2.955-2.697c0-0.009 0-0.019 0-0.029-0.009-1.497 1.301-2.717 2.925-2.725s2.947 1.2 2.955 2.697c0 0.010 0 0.019 0 0.029zM17.156 17.962c-0.947-1.434-0.728-3.243 0.491-4.041s2.974-0.283 3.921 1.15c0.947 1.434 0.728 3.243-0.491 4.041s-2.974 0.283-3.921-1.15zM23.111 23.968c-1.258 1.746-2.962 1.814-3.596 1.328-0.664-0.626-0.157-2.57 0.753-3.636l-0-0c1.041-1.176 2.154-1.943 2.93-1.343 0.522 0.52 0.828 2.479-0.086 3.651zM24.096 20.265c-1.070 0.476-1.942-5.318-0.626-4.966 2.182 1.246 1.803 4.019 0.626 4.966z"></path>
</symbol>
<symbol id="nginx" viewBox="0 0 32 32">
<path d="M16.045 13.632c-0.095 0.035-0.17 0.094-0.229 0.182-0.095 0.14-0.095 0.144-0.102 0.92l-0.006 0.704h0.942l-0.004-0.725-0.004-0.724-0.048-0.1c-0.081-0.17-0.212-0.267-0.382-0.277-0.063-0.004-0.111 0.001-0.166 0.020z"></path>
<path d="M5.3 13.688c-0.236 0.039-0.467 0.2-0.526 0.366-0.027 0.075-0.029 0.134-0.033 1.974-0.004 2.177-0.014 2.016 0.121 2.162 0.052 0.058 0.105 0.097 0.167 0.125 0.082 0.038 0.105 0.042 0.242 0.042 0.14 0 0.159-0.003 0.248-0.046 0.121-0.058 0.2-0.137 0.244-0.244l0.035-0.085 0.007-1.4 0.007-1.399 0.404 0.49c0.222 0.271 0.728 0.887 1.125 1.37 0.764 0.933 0.939 1.125 1.083 1.201 0.162 0.087 0.268 0.112 0.453 0.112 0.258 0 0.417-0.065 0.516-0.215 0.102-0.154 0.097-0.014 0.097-2.157v-1.925l-0.035-0.085c-0.046-0.114-0.143-0.21-0.255-0.254-0.066-0.026-0.114-0.033-0.222-0.035-0.159 0-0.221 0.016-0.332 0.081-0.091 0.055-0.162 0.159-0.186 0.274-0.010 0.046-0.016 0.538-0.016 1.468 0 0.77-0.004 1.399-0.010 1.397-0.010 0-2.033-2.441-2.332-2.813-0.146-0.18-0.261-0.288-0.362-0.336-0.124-0.058-0.32-0.089-0.44-0.069z"></path>
<path d="M22.933 13.698c-0.143 0.037-0.265 0.141-0.332 0.281-0.023 0.049-0.035 0.101-0.039 0.196-0.006 0.113-0.001 0.146 0.030 0.236 0.071 0.202 0.095 0.231 0.799 0.939 0.368 0.369 0.668 0.678 0.668 0.685s-0.3 0.316-0.668 0.685c-0.715 0.718-0.743 0.751-0.806 0.956-0.045 0.151-0.033 0.319 0.032 0.44 0.167 0.313 0.539 0.36 0.908 0.114 0.036-0.023 0.362-0.339 0.725-0.701l0.659-0.658 0.66 0.658c0.362 0.362 0.688 0.678 0.724 0.701 0.172 0.115 0.358 0.173 0.5 0.157 0.185-0.022 0.324-0.114 0.408-0.271 0.065-0.121 0.076-0.288 0.032-0.44-0.063-0.205-0.091-0.238-0.806-0.956-0.368-0.369-0.668-0.678-0.668-0.685s0.3-0.316 0.668-0.685c0.704-0.708 0.728-0.737 0.799-0.939 0.032-0.091 0.036-0.124 0.030-0.236-0.004-0.095-0.014-0.147-0.039-0.198-0.105-0.219-0.337-0.333-0.585-0.287-0.048 0.009-0.148 0.046-0.224 0.082l-0.137 0.068-1.363 1.357-0.681-0.679-0.682-0.678-0.137-0.068c-0.19-0.092-0.33-0.115-0.477-0.075z"></path>
<path d="M17.711 13.723c-0.141 0.033-0.257 0.125-0.317 0.257l-0.032 0.066v3.893l0.040 0.087c0.022 0.048 0.063 0.111 0.092 0.14 0.114 0.117 0.352 0.174 0.597 0.143 0.229-0.029 0.386-0.115 0.575-0.313 0.059-0.063 0.614-0.724 1.233-1.468l1.125-1.353 0.007 1.396 0.007 1.397 0.035 0.075c0.062 0.14 0.199 0.236 0.371 0.264 0.209 0.035 0.398-0.016 0.519-0.137 0.138-0.137 0.127 0.023 0.133-2.011 0.004-1.864 0.001-1.986-0.058-2.121-0.058-0.137-0.268-0.278-0.47-0.317-0.18-0.035-0.41 0.012-0.561 0.112-0.055 0.036-0.17 0.162-0.412 0.451-0.908 1.086-2.182 2.594-2.19 2.594-0.006 0.001-0.013-0.63-0.014-1.402-0.004-1.27-0.007-1.407-0.029-1.462-0.061-0.15-0.157-0.239-0.313-0.284-0.085-0.024-0.248-0.029-0.337-0.007z"></path>
<path d="M11.020 13.782c-0.039 0.068-1.146 2.111-1.182 2.182l-0.022 0.045 0.645 1.159 0.645 1.161 2.699 0.007 0.663-1.221 0.663-1.223-0.513-0.009c-0.921-0.016-2.383-0.014-2.477 0.003-0.128 0.023-0.225 0.076-0.307 0.166-0.248 0.271-0.082 0.668 0.307 0.74 0.055 0.010 0.345 0.016 0.797 0.016h0.711l-0.221 0.363-0.221 0.365-1.487 0.007-0.407-0.734c-0.222-0.404-0.405-0.743-0.405-0.753 0-0.012 0.17-0.333 0.379-0.715l0.378-0.696h1.634l0.242 0.397 0.244 0.395 0.539 0.001h0.538l-0.020-0.033c-0.012-0.017-0.244-0.404-0.516-0.858l-0.495-0.825h-2.777l-0.035 0.061z"></path>
<path d="M15.714 16.918c0.006 1.024 0.006 1.037 0.037 1.129 0.046 0.138 0.121 0.228 0.239 0.288 0.123 0.062 0.245 0.068 0.366 0.014 0.097-0.042 0.206-0.16 0.251-0.271l0.033-0.082 0.004-1.047 0.004-1.047-0.141-0.009c-0.078-0.006-0.29-0.010-0.47-0.010h-0.329l0.004 1.034z"></path>
</symbol>
<symbol id="javascript_badge" viewBox="0 0 32 32">
<path d="M0.384 0.384v31.296h31.296v-31.296h-31.296zM16.718 27.156c-0.461 0.937-1.342 1.553-2.362 1.85-1.568 0.36-3.067 0.155-4.183-0.515-0.747-0.458-1.33-1.163-1.725-1.975 0.794-0.485 1.586-0.973 2.38-1.458 0.021 0.009 0.083 0.122 0.167 0.268 0.303 0.509 0.565 0.869 1.080 1.121 0.506 0.172 1.615 0.283 2.044-0.607 0.262-0.452 0.178-1.936 0.178-3.545 0-2.529 0.012-5.016 0.012-7.576h2.927c0 2.688 0.015 5.384 0 8.067 0.006 1.645 0.149 3.14-0.518 4.369zM28.862 26.329c-1.017 3.481-6.691 3.594-8.957 1.294-0.479-0.541-0.779-0.824-1.065-1.449 1.205-0.693 1.205-0.693 2.377-1.371 0.637 0.979 1.226 1.517 2.285 1.737 1.437 0.175 2.883-0.318 2.559-1.844-0.333-1.247-2.942-1.55-4.718-2.883-1.803-1.211-2.225-4.153-0.744-5.834 0.494-0.622 1.336-1.086 2.219-1.309 0.306-0.039 0.616-0.080 0.922-0.119 1.77-0.036 2.877 0.431 3.689 1.339 0.226 0.229 0.41 0.476 0.756 1.011-0.943 0.601-0.94 0.595-2.291 1.47-0.289-0.622-0.767-1.012-1.273-1.181-0.785-0.238-1.776 0.021-1.981 0.851-0.071 0.256-0.056 0.494 0.057 0.916 0.318 0.726 1.386 1.041 2.344 1.481 2.758 1.119 3.689 2.317 3.918 3.745 0.22 1.229-0.054 2.026-0.095 2.145z"></path>
</symbol>
<symbol id="mitlicence" viewBox="0 0 32 32">
<path fill="#211915" style="fill: var(--color1, #211915)" d="M16 5.023c-6.081-0-11.011 4.915-11.011 10.977s4.93 10.977 11.011 10.977 11.011-4.915 11.011-10.977v-0c0-6.063-4.93-10.977-11.011-10.977zM26.105 16c0 5.564-4.524 10.074-10.105 10.074s-10.105-4.51-10.105-10.074c0-5.564 4.524-10.074 10.105-10.074s10.105 4.51 10.105 10.074v0z"></path>
<path d="M8.462 20.378v-8.607h2.064l1.239 5.871 1.225-5.871h2.069v8.607h-1.281v-6.775l-1.356 6.775h-1.328l-1.351-6.775v6.775h-1.281z"></path>
<path d="M16.387 20.378v-8.607h1.379v8.607h-1.379z"></path>
<path d="M20.617 20.378v-7.151h-2.027v-1.456h5.428v1.456h-2.022v7.151h-1.379z"></path>
</symbol>
<symbol id="terminal" viewBox="0 0 32 32">
<path d="M25.716 6.411h-19.296c-0.888 0-1.608 0.72-1.608 1.608v16.080c0 0.888 0.72 1.608 1.608 1.608h19.296c0.888 0 1.608-0.72 1.608-1.608v-16.080c0-0.888-0.72-1.608-1.608-1.608zM8.028 17.667l3.216-3.216-3.216-3.216 1.608-1.608 4.824 4.824-4.824 4.824-1.608-1.608zM20.892 19.275h-6.432v-1.608h6.432v1.608z"></path>
</symbol>
<symbol id="code" viewBox="0 0 32 32">
<path d="M11.067 10.138l-4.817 5.862 4.817 5.862 1.139-1.874-3.246-3.989 3.246-3.989z"></path>
<path d="M13.175 21.723h2.114l3.361-11.477h-2.115z"></path>
<path d="M20.933 10.137l-1.139 1.874 3.246 3.989-3.246 3.989 1.139 1.874 4.817-5.862z"></path>
</symbol>
</defs>
</svg>
