<svg xmlns="http://www.w3.org/2000/svg" xmlns:xlink="http://www.w3.org/1999/xlink" style="position: absolute; width: 0; height: 0"><symbol viewbox="0 0 24 24" id="award">
  <title>award</title>
  <path d="M16.863 14.35c1.906-1.463 3.138-3.769 3.138-6.35 0-4.413-3.588-8-8-8s-8 3.588-8 8c0 2.588 1.231 4.887 3.138 6.35l-1.131 8.519c-0.050 0.381 0.119 0.756 0.444 0.969 0.319 0.213 0.731 0.219 1.062 0.019l4.488-2.694 4.488 2.694c0.156 0.094 0.337 0.144 0.513 0.144 0.194 0 0.381-0.056 0.55-0.162 0.319-0.213 0.494-0.588 0.444-0.969l-1.131-8.519zM6 8c0-3.306 2.694-6 6-6s6 2.694 6 6c0 2.088-1.069 3.925-2.694 5.006-0.044 0.025-0.081 0.050-0.119 0.075-0.925 0.581-2.019 0.919-3.188 0.919-3.306 0-6-2.694-6-6zM12.513 19.144c-0.319-0.188-0.713-0.188-1.031 0l-3.219 1.931 0.75-5.65c0.925 0.375 1.931 0.575 2.988 0.575s2.063-0.206 2.988-0.575l0.75 5.656-3.225-1.938z"></path>
</symbol><symbol viewbox="0 0 32 32" id="bootstrap">
  <title>bootstrap</title>
  <path d="M8.171 4.713c-0.562 0.083-1.237 0.347-1.716 0.675-0.313 0.207-0.717 0.596-0.95 0.901-0.26 0.343-0.577 1.003-0.702 1.456l-0.106 0.377v15.727l0.106 0.377c0.124 0.453 0.441 1.113 0.702 1.456 0.49 0.641 1.245 1.181 2.003 1.426 0.626 0.2 0.313 0.192 8.486 0.192 8.177 0 7.864 0.008 8.486-0.196 0.762-0.245 1.516-0.781 2.003-1.422 0.26-0.347 0.581-1.007 0.705-1.456l0.102-0.377v-15.727l-0.106-0.377c-0.124-0.453-0.441-1.113-0.701-1.456-0.234-0.306-0.637-0.694-0.95-0.901-0.336-0.23-0.883-0.479-1.305-0.596l-0.37-0.102-7.732-0.004c-4.251-0.004-7.834 0.008-7.954 0.026zM18.709 8.873c1.192 0.196 2.006 0.588 2.538 1.222 0.226 0.268 0.49 0.8 0.6 1.196 0.068 0.26 0.079 0.407 0.083 1.056 0.004 0.683-0.004 0.784-0.083 1.052-0.23 0.8-0.732 1.414-1.543 1.89l-0.279 0.162 0.2 0.064c0.305 0.102 0.815 0.366 1.075 0.562 0.649 0.49 1.101 1.252 1.282 2.161 0.087 0.453 0.087 1.422-0.004 1.837-0.358 1.633-1.622 2.768-3.523 3.149-0.728 0.147-0.916 0.155-4.824 0.155h-3.82v-14.6l3.953 0.015c3.538 0.011 3.99 0.019 4.345 0.079z"></path>
  <path d="M13.655 12.992v1.72l1.822-0.015c1.709-0.019 1.837-0.023 2.112-0.098 0.86-0.234 1.233-0.728 1.233-1.633 0-0.694-0.245-1.143-0.777-1.407-0.471-0.234-0.981-0.283-2.983-0.287h-1.407v1.72z"></path>
  <path d="M13.655 18.89v2.003l1.991-0.015c2.237-0.015 2.312-0.023 2.863-0.29 0.634-0.309 0.916-0.815 0.916-1.641 0-1.063-0.422-1.652-1.395-1.946-0.275-0.087-0.328-0.087-2.327-0.102l-2.048-0.011v2.003z"></path>
</symbol><symbol viewbox="0 0 24 24" id="check">
  <title>check</title>
  <path d="M9 16.172l10.594-10.594 1.406 1.406-12 12-5.578-5.578 1.406-1.406z"></path>
</symbol><symbol viewbox="0 0 24 24" id="check-box">
  <title>check_box</title>
  <path d="M9.984 17.016l9-9-1.406-1.453-7.594 7.594-3.563-3.563-1.406 1.406zM18.984 3c1.125 0 2.016 0.938 2.016 2.016v13.969c0 1.078-0.891 2.016-2.016 2.016h-13.969c-1.125 0-2.016-0.938-2.016-2.016v-13.969c0-1.078 0.891-2.016 2.016-2.016h13.969z"></path>
</symbol><symbol viewbox="0 0 32 32" id="chevron">
  <path d="M6.71,8.51,16,17.8l9.29-9.29,2.84,2.84L16,23.49,3.86,11.35Z"></path>
</symbol><symbol viewbox="0 0 32 32" id="close">
  <path d="M32,3.22,19.22,16,32,28.78,28.78,32,16,19.22,3.22,32,0,28.78,12.78,16,0,3.22,3.22,0,16,12.78,28.78,0Z"></path>
</symbol><symbol viewbox="0 0 32 32" id="code">
  <title>code</title>
  <path d="M11.067 10.138l-4.817 5.862 4.817 5.862 1.139-1.874-3.246-3.989 3.246-3.989z"></path>
  <path d="M13.175 21.723h2.114l3.361-11.477h-2.115z"></path>
  <path d="M20.933 10.137l-1.139 1.874 3.246 3.989-3.246 3.989 1.139 1.874 4.817-5.862z"></path>
</symbol><symbol viewbox="0 0 24 24" id="copied">
  <title>copied</title>
  <path d="M9.984 17.016l8.016-8.016-1.406-1.406-6.609 6.563-2.578-2.578-1.406 1.406zM12 3c-0.563 0-0.984 0.422-0.984 0.984s0.422 1.031 0.984 1.031 0.984-0.469 0.984-1.031-0.422-0.984-0.984-0.984zM18.984 3c1.078 0 2.016 0.938 2.016 2.016v13.969c0 1.078-0.938 2.016-2.016 2.016h-13.969c-1.078 0-2.016-0.938-2.016-2.016v-13.969c0-1.078 0.938-2.016 2.016-2.016h4.172c0.422-1.172 1.5-2.016 2.813-2.016s2.391 0.844 2.813 2.016h4.172z"></path>
</symbol><symbol viewbox="0 0 24 24" id="copy">
  <title>copy</title>
  <path d="M18.984 20.016v-16.031h-1.969v3h-10.031v-3h-1.969v16.031h13.969zM12 2.016c-0.563 0-0.984 0.422-0.984 0.984s0.422 0.984 0.984 0.984 0.984-0.422 0.984-0.984-0.422-0.984-0.984-0.984zM18.984 2.016c1.078 0 2.016 0.891 2.016 1.969v16.031c0 1.078-0.938 1.969-2.016 1.969h-13.969c-1.078 0-2.016-0.891-2.016-1.969v-16.031c0-1.078 0.938-1.969 2.016-1.969h4.172c0.422-1.172 1.5-2.016 2.813-2.016s2.391 0.844 2.813 2.016h4.172z"></path>
</symbol><symbol viewbox="0 0 24 24" id="github">
  <title>GitHub icon</title>
  <path d="M12 .297c-6.63 0-12 5.373-12 12 0 5.303 3.438 9.8 8.205 11.385.6.113.82-.258.82-.577 0-.285-.01-1.04-.015-2.04-3.338.724-4.042-1.61-4.042-1.61C4.422 18.07 3.633 17.7 3.633 17.7c-1.087-.744.084-.729.084-.729 1.205.084 1.838 1.236 1.838 1.236 1.07 1.835 2.809 1.305 3.495.998.108-.776.417-1.305.76-1.605-2.665-.3-5.466-1.332-5.466-5.93 0-1.31.465-2.38 1.235-3.22-.135-.303-.54-1.523.105-3.176 0 0 1.005-.322 3.3 1.23.96-.267 1.98-.399 3-.405 1.02.006 2.04.138 3 .405 2.28-1.552 3.285-1.23 3.285-1.23.645 1.653.24 2.873.12 3.176.765.84 1.23 1.91 1.23 3.22 0 4.61-2.805 5.625-5.475 5.92.42.36.81 1.096.81 2.22 0 1.606-.015 2.896-.015 3.286 0 .315.21.69.825.57C20.565 22.092 24 17.592 24 12.297c0-6.627-5.373-12-12-12"></path>
</symbol><symbol viewbox="0 0 24 24" id="info">
  <title>info</title>
  <path d="M11.016 9v-2.016h1.969v2.016h-1.969zM12 20.016c4.406 0 8.016-3.609 8.016-8.016s-3.609-8.016-8.016-8.016-8.016 3.609-8.016 8.016 3.609 8.016 8.016 8.016zM12 2.016c5.531 0 9.984 4.453 9.984 9.984s-4.453 9.984-9.984 9.984-9.984-4.453-9.984-9.984 4.453-9.984 9.984-9.984zM11.016 17.016v-6h1.969v6h-1.969z"></path>
</symbol><symbol viewbox="0 0 512 512" id="link">
  <g>
    <path d="M256.5,208H256v0C256.2,208,256.3,208,256.5,208z"></path>
    <path d="M368.5,160H320c0,0,26,17,31.6,48H368h0.5c17.6,0,31.5,13.9,31.5,31.5v32c0,17.6-13.9,32.5-31.5,32.5h-112
      c-17.6,0-32.5-14.9-32.5-32.5V240h-48v31.5c0,11.5,2.5,22.5,6.9,32.5c12.6,28.2,40.9,48,73.6,48h112c44.2,0,79.5-36.3,79.5-80.5
      v-32C448,195.3,412.7,160,368.5,160z"></path>
    <path d="M329.6,208c-12.1-28.3-40.1-48-73.1-48h-112c-44.2,0-80.5,35.3-80.5,79.5v32c0,44.2,36.3,80.5,80.5,80.5H192
      c0,0-25.8-17-32.1-48h-15.4c-17.6,0-32.5-14.9-32.5-32.5v-32c0-17.6,14.9-31.5,32.5-31.5H256h0.5c17.6,0,31.5,13.9,31.5,31.5v32
      c0,0.2,0,0.3,0,0.5h48c0-0.2,0-0.3,0-0.5v-32C336,228.3,333.7,217.6,329.6,208z"></path>
  </g>
</symbol><symbol viewbox="0 0 24 24" id="share">
  <title>exit_to_app</title>
  <path d="M18.984 3c1.078 0 2.016 0.938 2.016 2.016v13.969c0 1.078-0.938 2.016-2.016 2.016h-13.969c-1.125 0-2.016-0.938-2.016-2.016v-3.984h2.016v3.984h13.969v-13.969h-13.969v3.984h-2.016v-3.984c0-1.078 0.891-2.016 2.016-2.016h13.969zM10.078 15.609l2.578-2.625h-9.656v-1.969h9.656l-2.578-2.625 1.406-1.406 5.016 5.016-5.016 5.016z"></path>
</symbol><symbol viewbox="0 0 24 24" id="stars">
  <title>stars</title>
  <path d="M16.219 18l-1.125-4.828 3.75-3.234-4.922-0.422-1.922-4.5-1.922 4.547-4.922 0.375 3.75 3.234-1.125 4.828 4.219-2.531zM12 2.016c5.531 0 9.984 4.453 9.984 9.984s-4.453 9.984-9.984 9.984-9.984-4.453-9.984-9.984 4.453-9.984 9.984-9.984z"></path>
</symbol><symbol viewbox="0 0 32 32" id="terminal">
  <title>terminal</title>
  <path d="M25.716 6.411h-19.296c-0.888 0-1.608 0.72-1.608 1.608v16.080c0 0.888 0.72 1.608 1.608 1.608h19.296c0.888 0 1.608-0.72 1.608-1.608v-16.080c0-0.888-0.72-1.608-1.608-1.608zM8.028 17.667l3.216-3.216-3.216-3.216 1.608-1.608 4.824 4.824-4.824 4.824-1.608-1.608zM20.892 19.275h-6.432v-1.608h6.432v1.608z"></path>
</symbol><symbol viewbox="0 0 24 24" id="tune">
  <title>tune</title>
  <path d="M15 9v-6h2.016v2.016h3.984v1.969h-3.984v2.016h-2.016zM21 12.984h-9.984v-1.969h9.984v1.969zM6.984 9h2.016v6h-2.016v-2.016h-3.984v-1.969h3.984v-2.016zM12.984 21h-1.969v-6h1.969v2.016h8.016v1.969h-8.016v2.016zM3 5.016h9.984v1.969h-9.984v-1.969zM3 17.016h6v1.969h-6v-1.969z"></path>
</symbol></svg>